<?xml version="1.0" encoding="UTF-8"?>
<svg width="30px" height="30px" viewBox="0 0 30 30" version="1.1" xmlns="http://www.w3.org/2000/svg" xmlns:xlink="http://www.w3.org/1999/xlink">
    <!-- Generator: Sketch 42 (36781) - http://www.bohemiancoding.com/sketch -->
    <title>instagram-logo</title>
    <desc>Created with Sketch.</desc>
    <defs>
        <polygon id="path-1" points="0.1125 30 30 30 30 0.075 0.1125 0.075"></polygon>
    </defs>
    <g id="Welcome" stroke="none" stroke-width="1" fill="none" fill-rule="evenodd">
        <g id="Services---Desktop-HD" transform="translate(-1232.000000, -1289.000000)">
            <g id="instagram-logo" transform="translate(1232.000000, 1289.000000)">
                <mask id="mask-2" fill="white">
                    <use xlink:href="#path-1"></use>
                </mask>
                <g id="Clip-2"></g>
                <path d="M26.99625,0 L3.00375,0 C1.348125,0 0,1.348125 0,3.00375 L0,26.99625 C0,28.651875 1.348125,30 3.00375,30 L26.99625,30 C28.651875,30 30,28.651875 30,26.99625 L30,3.00375 C30,1.348125 28.651875,0 26.99625,0 Z M15,9.001875 C18.30375,9.001875 20.998125,11.69625 20.998125,15 C20.998125,18.30375 18.30375,20.998125 15,20.998125 C11.69625,20.998125 9.001875,18.30375 9.001875,15 C9.001875,11.69625 11.69625,9.001875 15,9.001875 Z M3.75,26.99625 C3.30375,26.99625 3.00375,26.69625 3.00375,26.25 L3.00375,13.498125 L6.151875,13.498125 C5.998125,13.951875 5.998125,14.55375 5.998125,15 C5.998125,19.951875 10.048125,24.001875 15,24.001875 C19.951875,24.001875 24.001875,19.951875 24.001875,15 C24.001875,14.55375 24.001875,13.951875 23.848125,13.498125 L26.99625,13.498125 L26.99625,26.25 C26.99625,26.69625 26.69625,26.99625 26.25,26.99625 L3.75,26.99625 Z M26.99625,6.75375 C26.99625,7.2 26.69625,7.5 26.25,7.5 L23.24625,7.5 C22.8,7.5 22.5,7.2 22.5,6.75375 L22.5,3.75 C22.5,3.30375 22.8,3.00375 23.24625,3.00375 L26.25,3.00375 C26.69625,3.00375 26.99625,3.30375 26.99625,3.75 L26.99625,6.75375 Z" id="Fill-1" fill="#FFFFFF" opacity="0.66" mask="url(#mask-2)"></path>
            </g>
        </g>
    </g>
</svg>