<?xml version="1.0" encoding="UTF-8"?>
<svg width="190px" height="181px" viewBox="0 0 190 181" version="1.1" xmlns="http://www.w3.org/2000/svg" xmlns:xlink="http://www.w3.org/1999/xlink">
    <!-- Generator: Sketch 42 (36781) - http://www.bohemiancoding.com/sketch -->
    <title>star copy 3</title>
    <desc>Created with Sketch.</desc>
    <defs>
        <polygon id="path-1" points="0.277333333 0.911325581 0.277333333 197.998912 206.584281 197.998912 206.584281 0.911325581 0.277333333 0.911325581"></polygon>
    </defs>
    <g id="Welcome" stroke="none" stroke-width="1" fill="none" fill-rule="evenodd">
        <g id="Services---Desktop-HD" transform="translate(-515.000000, -572.000000)">
            <g id="star-copy-5" transform="translate(121.000000, 558.000000)">
                <g id="star-copy-3" transform="translate(500.092420, 107.302643) rotate(-19.000000) translate(-500.092420, -107.302643) translate(396.592420, 8.302643)">
                    <mask id="mask-2" fill="white">
                        <use xlink:href="#path-1"></use>
                    </mask>
                    <g id="Clip-2"></g>
                    <path d="M206.391467,75.915814 C205.9616,74.5783488 204.806044,73.6018605 203.414756,73.4028605 L136.517333,63.6611163 L106.597689,2.97537209 C105.987556,1.70732558 104.702578,0.911325581 103.297422,0.911325581 C101.887644,0.911325581 100.607289,1.70732558 99.9740444,2.97537209 L70.0544,63.6796279 L3.1616,73.4028605 C1.77031111,73.6018605 0.614755556,74.5783488 0.180266667,75.915814 C-0.254222222,77.2532791 0.106311111,78.7388372 1.11857778,79.7153256 L49.5271111,126.952372 L38.0963556,193.677535 C37.8606222,195.047395 38.4199111,196.458907 39.5616,197.29193 C40.6986667,198.124953 42.2147556,198.231395 43.4581333,197.560349 L103.297422,166.07207 L163.132089,197.560349 C163.6544,197.851907 164.250667,197.995372 164.846933,197.995372 C165.604978,197.995372 166.381511,197.759349 167.014756,197.29193 C168.151822,196.458907 168.7296,195.047395 168.493867,193.677535 L157.063111,126.970884 L205.471644,79.7153256 C206.483911,78.7203256 206.844444,77.2532791 206.391467,75.915814 Z" id="Fill-1" fill-opacity="0.296790082" fill="#545454" mask="url(#mask-2)"></path>
                </g>
            </g>
        </g>
    </g>
</svg>